<svg version="1.0" preserveAspectRatio="xMidYMid meet" viewBox="11.338582677165354 247.859997858 1420.5624296962878 302.939997382" zoomAndPan="magnify" xmlns:xlink="http://www.w3.org/1999/xlink" xmlns="http://www.w3.org/2000/svg" style="max-height: 500px" width="1420.5624296962878" height="302.939997382"><defs><g/><clipPath id="be3cd6318b"><rect height="345" y="0" width="1096" x="0"/></clipPath></defs><path stroke-miterlimit="4" stroke-opacity="1" stroke-width="2" stroke="#027fff" d="M 11.017072 2.813979 C 11.027489 2.756977 11.043114 2.701421 11.063368 2.647312 C 11.083623 2.592914 11.108507 2.540831 11.137732 2.491062 C 11.167245 2.441005 11.200521 2.39413 11.238137 2.349859 C 11.275463 2.305877 11.316551 2.265368 11.361111 2.228331 C 11.405671 2.191294 11.453125 2.158308 11.503183 2.129662 C 11.55353 2.101016 11.605903 2.076711 11.660301 2.057035 C 11.714699 2.037359 11.770544 2.022602 11.827546 2.012474 C 11.884549 2.002637 11.94213 1.997718 12 1.997718 C 12.057871 1.997718 12.115452 2.002637 12.172454 2.012474 C 12.229456 2.022602 12.285301 2.037359 12.339699 2.057035 C 12.394097 2.076711 12.44647 2.101016 12.496817 2.129662 C 12.546875 2.158308 12.594329 2.191294 12.638889 2.228331 C 12.683449 2.265368 12.724537 2.305877 12.761864 2.349859 C 12.799479 2.39413 12.832755 2.441005 12.862269 2.491062 C 12.891493 2.540831 12.916378 2.592914 12.936632 2.647312 C 12.956887 2.701421 12.972512 2.756977 12.982928 2.813979 L 14.034144 8.372139 C 14.052662 8.470229 14.078415 8.566584 14.111401 8.660912 C 14.144387 8.755241 14.184317 8.846676 14.230903 8.934929 C 14.277489 9.02347 14.330729 9.107961 14.390047 9.188401 C 14.449364 9.268841 14.514468 9.344361 14.58507 9.414963 C 14.655672 9.485565 14.731192 9.550669 14.811632 9.609986 C 14.892072 9.669304 14.976563 9.722544 15.065104 9.76913 C 15.153357 9.815716 15.244792 9.855646 15.339121 9.888632 C 15.433449 9.921618 15.529804 9.947371 15.627894 9.965889 L 21.186054 11.017105 C 21.243056 11.027521 21.298612 11.043146 21.352721 11.063401 C 21.406829 11.083655 21.458913 11.10854 21.508971 11.137764 C 21.558739 11.166989 21.605903 11.200554 21.649885 11.238169 C 21.694156 11.275496 21.734665 11.316584 21.771702 11.361144 C 21.808739 11.405704 21.841436 11.453158 21.870371 11.503216 C 21.899017 11.553563 21.923322 11.605936 21.942998 11.660334 C 21.962674 11.714732 21.977431 11.770577 21.987559 11.827579 C 21.997396 11.884581 22.002315 11.942162 22.002315 12.000033 C 22.002315 12.057903 21.997396 12.115484 21.987559 12.172487 C 21.977431 12.229489 21.962674 12.285044 21.942998 12.339732 C 21.923322 12.39413 21.899017 12.446503 21.870371 12.49685 C 21.841436 12.546908 21.808739 12.594362 21.771702 12.638922 C 21.734665 12.683482 21.694156 12.72457 21.649885 12.761896 C 21.605903 12.799512 21.558739 12.832788 21.508971 12.862301 C 21.458913 12.891526 21.406829 12.91641 21.352721 12.936665 C 21.298612 12.956919 21.243056 12.972255 21.186054 12.982961 L 15.627894 14.033887 C 15.529804 14.052695 15.433449 14.078447 15.339121 14.111433 C 15.244792 14.14442 15.153357 14.184061 15.065104 14.230936 C 14.976563 14.277521 14.892072 14.330473 14.811632 14.390079 C 14.731192 14.449396 14.655672 14.514211 14.58507 14.585102 C 14.514468 14.655704 14.449364 14.731225 14.390047 14.811665 C 14.330729 14.892105 14.277489 14.976595 14.230903 15.064848 C 14.184317 15.153389 14.144387 15.244825 14.111401 15.339153 C 14.078415 15.433482 14.052662 15.529836 14.033854 15.627927 L 12.982928 21.186087 C 12.972512 21.2428 12.956887 21.298355 12.936632 21.352753 C 12.916378 21.406862 12.891493 21.458945 12.862269 21.509003 C 12.832755 21.558772 12.799479 21.605936 12.761864 21.649918 C 12.724537 21.694188 12.683449 21.734698 12.638889 21.771735 C 12.594329 21.808772 12.546875 21.841469 12.496817 21.870404 C 12.44647 21.89905 12.394097 21.923355 12.339699 21.943031 C 12.285301 21.962707 12.229456 21.977464 12.172454 21.987302 C 12.115452 21.997429 12.057871 22.002348 12 22.002348 C 11.94213 22.002348 11.884549 21.997429 11.827546 21.987302 C 11.770544 21.977464 11.714699 21.962707 11.660301 21.943031 C 11.605903 21.923355 11.55353 21.89905 11.503183 21.870404 C 11.453125 21.841469 11.405671 21.808772 11.361111 21.771735 C 11.316551 21.734698 11.275463 21.694188 11.238137 21.649918 C 11.200521 21.605936 11.167245 21.558772 11.137732 21.509003 C 11.108507 21.458945 11.083623 21.406862 11.063368 21.352753 C 11.043114 21.298355 11.027489 21.2428 11.017072 21.186087 L 9.965857 15.627927 C 9.947338 15.529836 9.921586 15.433482 9.8886 15.339153 C 9.855613 15.244825 9.815683 15.153389 9.769097 15.064848 C 9.722512 14.976595 9.669271 14.892105 9.609954 14.811665 C 9.550637 14.731225 9.485532 14.655704 9.414931 14.585102 C 9.344329 14.514211 9.268808 14.449396 9.188368 14.390079 C 9.107928 14.330473 9.023437 14.277521 8.934896 14.230936 C 8.846644 14.184061 8.755208 14.14442 8.66088 14.111433 C 8.566551 14.078447 8.470197 14.052695 8.372106 14.033887 L 2.813946 12.982961 C 2.756944 12.972255 2.701389 12.956919 2.64728 12.936665 C 2.593171 12.91641 2.541088 12.891526 2.49103 12.862301 C 2.441261 12.832788 2.394097 12.799512 2.350115 12.761896 C 2.305845 12.72457 2.265335 12.683482 2.228298 12.638922 C 2.191261 12.594362 2.158564 12.546908 2.129629 12.49685 C 2.100983 12.446503 2.076678 12.39413 2.057002 12.339732 C 2.037326 12.285044 2.022569 12.229489 2.012442 12.172487 C 2.002604 12.115484 1.997685 12.057903 1.997685 12.000033 C 1.997685 11.942162 2.002604 11.884581 2.012442 11.827579 C 2.022569 11.770577 2.037326 11.714732 2.057002 11.660334 C 2.076678 11.605936 2.100983 11.553563 2.129629 11.503216 C 2.158564 11.453158 2.191261 11.405704 2.228298 11.361144 C 2.265335 11.316584 2.305845 11.275496 2.350115 11.238169 C 2.394097 11.200554 2.441261 11.166989 2.49103 11.137764 C 2.541088 11.10854 2.593171 11.083655 2.64728 11.063401 C 2.701389 11.043146 2.756944 11.027521 2.813946 11.017105 L 8.372106 9.965889 C 8.470197 9.947371 8.566551 9.921618 8.66088 9.888632 C 8.755208 9.855646 8.846644 9.815716 8.934896 9.76913 C 9.023437 9.722544 9.107928 9.669304 9.188368 9.609986 C 9.268808 9.550669 9.344329 9.485565 9.414931 9.414963 C 9.485532 9.344361 9.550637 9.268841 9.609954 9.188401 C 9.669271 9.107961 9.722512 9.02347 9.769097 8.934929 C 9.815683 8.846676 9.855613 8.755241 9.8886 8.660912 C 9.921586 8.566584 9.947338 8.470229 9.965857 8.372139 Z M 11.017072 2.813979" stroke-linejoin="round" fill="none" transform="matrix(13.499999, 0, 0, 13.499999, 0.00000622222, 236.351127)" stroke-linecap="round"/><path stroke-miterlimit="4" stroke-opacity="1" stroke-width="2" stroke="#027fff" d="M 20.000001 2.000032 L 20.000001 6.000033" stroke-linejoin="round" fill="none" transform="matrix(13.499999, 0, 0, 13.499999, 0.00000622222, 236.351127)" stroke-linecap="round"/><path stroke-miterlimit="4" stroke-opacity="1" stroke-width="2" stroke="#027fff" d="M 22.000001 4.000032 L 18 4.000032" stroke-linejoin="round" fill="none" transform="matrix(13.499999, 0, 0, 13.499999, 0.00000622222, 236.351127)" stroke-linecap="round"/><path stroke-miterlimit="4" stroke-opacity="1" stroke-width="2" stroke="#027fff" d="M 6 20.000033 C 6 20.065427 5.996817 20.13082 5.990451 20.195924 C 5.984085 20.261318 5.974248 20.325843 5.961516 20.39008 C 5.948785 20.454316 5.93287 20.517973 5.913773 20.580473 C 5.894965 20.643262 5.872685 20.704894 5.847801 20.765369 C 5.822627 20.825843 5.794849 20.885161 5.763889 20.942742 C 5.732928 21.000612 5.699363 21.056746 5.662905 21.111144 C 5.626447 21.165543 5.587673 21.218205 5.546007 21.268841 C 5.50434 21.319478 5.460648 21.3678 5.414352 21.414096 C 5.367766 21.460392 5.319444 21.504374 5.268808 21.54604 C 5.218171 21.587707 5.165509 21.62648 5.111111 21.662938 C 5.056713 21.699397 5.000578 21.732962 4.942708 21.763922 C 4.885127 21.794594 4.82581 21.822661 4.765335 21.847834 C 4.704861 21.872719 4.643229 21.894999 4.58044 21.913806 C 4.51794 21.932904 4.454282 21.948818 4.390046 21.96155 C 4.32581 21.974281 4.261284 21.98383 4.195891 21.990485 C 4.130787 21.99685 4.065393 22.000033 4 22.000033 C 3.934606 22.000033 3.869213 21.99685 3.804109 21.990485 C 3.738715 21.98383 3.67419 21.974281 3.609953 21.96155 C 3.545717 21.948818 3.48206 21.932904 3.41956 21.913806 C 3.356771 21.894999 3.295139 21.872719 3.234664 21.847834 C 3.17419 21.822661 3.114872 21.794594 3.057291 21.763922 C 2.999421 21.732962 2.943287 21.699397 2.888889 21.662938 C 2.83449 21.62648 2.781828 21.587707 2.731192 21.54604 C 2.680555 21.504374 2.632233 21.460392 2.585648 21.414096 C 2.539352 21.3678 2.495659 21.319478 2.453993 21.268841 C 2.412326 21.218205 2.373553 21.165543 2.337095 21.111144 C 2.300636 21.056746 2.267071 21.000612 2.236111 20.942742 C 2.20515 20.885161 2.177372 20.825843 2.152199 20.765369 C 2.127314 20.704894 2.105034 20.643262 2.086226 20.580473 C 2.067129 20.517973 2.051215 20.454316 2.038483 20.39008 C 2.025752 20.325843 2.015914 20.261318 2.009548 20.195924 C 2.003183 20.13082 2 20.065427 2 20.000033 C 2 19.93464 2.003183 19.869246 2.009548 19.803853 C 2.015914 19.738749 2.025752 19.673934 2.038483 19.609698 C 2.051215 19.545461 2.067129 19.482093 2.086226 19.419304 C 2.105034 19.356804 2.127314 19.295172 2.152199 19.234698 C 2.177372 19.174223 2.20515 19.114906 2.236111 19.057325 C 2.267071 18.999454 2.300636 18.94332 2.337095 18.888922 C 2.373553 18.834524 2.412326 18.781862 2.453993 18.731225 C 2.495659 18.680589 2.539352 18.631978 2.585648 18.585681 C 2.632233 18.539385 2.680555 18.495404 2.731192 18.454026 C 2.781828 18.41236 2.83449 18.373586 2.888889 18.337128 C 2.943287 18.30067 2.999421 18.267105 3.057291 18.236144 C 3.114872 18.205184 3.17419 18.177406 3.234664 18.152232 C 3.295139 18.127059 3.356771 18.105068 3.41956 18.08626 C 3.48206 18.067163 3.545717 18.051248 3.609953 18.038517 C 3.67419 18.025785 3.738715 18.015947 3.804109 18.009582 C 3.869213 18.003216 3.934606 18.000033 4 18.000033 C 4.065393 18.000033 4.130787 18.003216 4.195891 18.009582 C 4.261284 18.015947 4.32581 18.025785 4.390046 18.038517 C 4.454282 18.051248 4.51794 18.067163 4.58044 18.08626 C 4.643229 18.105068 4.704861 18.127059 4.765335 18.152232 C 4.82581 18.177406 4.885127 18.205184 4.942708 18.236144 C 5.000578 18.267105 5.056713 18.30067 5.111111 18.337128 C 5.165509 18.373586 5.218171 18.41236 5.268808 18.454026 C 5.319444 18.495404 5.367766 18.539385 5.414352 18.585681 C 5.460648 18.631978 5.50434 18.680589 5.546007 18.731225 C 5.587673 18.781862 5.626447 18.834524 5.662905 18.888922 C 5.699363 18.94332 5.732928 18.999454 5.763889 19.057325 C 5.794849 19.114906 5.822627 19.174223 5.847801 19.234698 C 5.872685 19.295172 5.894965 19.356804 5.913773 19.419304 C 5.93287 19.482093 5.948785 19.545461 5.961516 19.609698 C 5.974248 19.673934 5.984085 19.738749 5.990451 19.803853 C 5.996817 19.869246 6 19.93464 6 20.000033 Z M 6 20.000033" stroke-linejoin="round" fill="none" transform="matrix(13.499999, 0, 0, 13.499999, 0.00000622222, 236.351127)" stroke-linecap="round"/><g transform="matrix(1, 0, 0, 1, 344, 202)"><g clip-path="url(#be3cd6318b)"><g fill-opacity="1" fill="#ffffff"><g transform="translate(0.668348, 275.540537)"><g><path d="M 86.03125 3.0625 C 70.644531 3.0625 57.300781 -0.25 46 -6.875 C 34.695312 -13.5 25.960938 -22.765625 19.796875 -34.671875 C 13.640625 -46.578125 10.5625 -60.40625 10.5625 -76.15625 C 10.5625 -92.007812 13.640625 -105.910156 19.796875 -117.859375 C 25.960938 -129.804688 34.695312 -139.09375 46 -145.71875 C 57.300781 -152.34375 70.644531 -155.65625 86.03125 -155.65625 C 95.382812 -155.65625 103.976562 -154.425781 111.8125 -151.96875 C 119.644531 -149.519531 126.570312 -145.976562 132.59375 -141.34375 C 138.613281 -136.707031 143.546875 -131.125 147.390625 -124.59375 C 151.234375 -118.0625 153.804688 -110.722656 155.109375 -102.578125 L 116.1875 -97.015625 C 115.351562 -100.992188 114.101562 -104.554688 112.4375 -107.703125 C 110.769531 -110.859375 108.6875 -113.570312 106.1875 -115.84375 C 103.6875 -118.113281 100.789062 -119.847656 97.5 -121.046875 C 94.207031 -122.253906 90.523438 -122.859375 86.453125 -122.859375 C 79.128906 -122.859375 72.988281 -120.910156 68.03125 -117.015625 C 63.070312 -113.128906 59.296875 -107.6875 56.703125 -100.6875 C 54.109375 -93.695312 52.8125 -85.566406 52.8125 -76.296875 C 52.8125 -67.128906 54.109375 -59.046875 56.703125 -52.046875 C 59.296875 -45.054688 63.070312 -39.59375 68.03125 -35.65625 C 72.988281 -31.71875 79.128906 -29.75 86.453125 -29.75 C 90.523438 -29.75 94.207031 -30.375 97.5 -31.625 C 100.789062 -32.875 103.707031 -34.65625 106.25 -36.96875 C 108.800781 -39.28125 110.929688 -42.082031 112.640625 -45.375 C 114.359375 -48.664062 115.585938 -52.394531 116.328125 -56.5625 L 155.25 -50.875 C 154.039062 -42.625 151.515625 -35.207031 147.671875 -28.625 C 143.828125 -22.050781 138.890625 -16.378906 132.859375 -11.609375 C 126.835938 -6.835938 119.863281 -3.195312 111.9375 -0.6875 C 104.019531 1.8125 95.382812 3.0625 86.03125 3.0625 Z M 86.03125 3.0625"/></g></g><g transform="translate(166.058744, 275.540537)"><g><path d="M 17.09375 0 L 17.09375 -153.4375 L 55.875 -153.4375 L 57.546875 -116.046875 L 54.625 -116.046875 C 57.03125 -125.316406 60.570312 -132.894531 65.25 -138.78125 C 69.925781 -144.664062 75.414062 -148.992188 81.71875 -151.765625 C 88.019531 -154.546875 94.644531 -155.9375 101.59375 -155.9375 C 112.71875 -155.9375 121.867188 -152.460938 129.046875 -145.515625 C 136.222656 -138.566406 141.296875 -128.097656 144.265625 -114.109375 L 139.546875 -114.109375 C 141.671875 -123.554688 145.304688 -131.359375 150.453125 -137.515625 C 155.597656 -143.679688 161.710938 -148.289062 168.796875 -151.34375 C 175.878906 -154.40625 183.40625 -155.9375 191.375 -155.9375 C 200.832031 -155.9375 209.289062 -153.875 216.75 -149.75 C 224.207031 -145.632812 230.085938 -139.660156 234.390625 -131.828125 C 238.703125 -123.992188 240.859375 -114.425781 240.859375 -103.125 L 240.859375 0 L 199.296875 0 L 199.296875 -95.203125 C 199.296875 -104.003906 196.929688 -110.554688 192.203125 -114.859375 C 187.484375 -119.171875 181.648438 -121.328125 174.703125 -121.328125 C 169.421875 -121.328125 164.859375 -120.191406 161.015625 -117.921875 C 157.171875 -115.648438 154.203125 -112.476562 152.109375 -108.40625 C 150.023438 -104.332031 148.984375 -99.515625 148.984375 -93.953125 L 148.984375 0 L 108.828125 0 L 108.828125 -96.453125 C 108.828125 -104.054688 106.578125 -110.101562 102.078125 -114.59375 C 97.585938 -119.082031 91.773438 -121.328125 84.640625 -121.328125 C 79.734375 -121.328125 75.3125 -120.210938 71.375 -117.984375 C 67.4375 -115.765625 64.304688 -112.5 61.984375 -108.1875 C 59.671875 -103.882812 58.515625 -98.582031 58.515625 -92.28125 L 58.515625 0 Z M 17.09375 0"/></g></g><g transform="translate(423.873185, 275.540537)"><g><path d="M 73.9375 2.640625 C 61.800781 2.640625 50.960938 -0.460938 41.421875 -6.671875 C 31.878906 -12.878906 24.347656 -21.863281 18.828125 -33.625 C 13.316406 -45.394531 10.5625 -59.710938 10.5625 -76.578125 C 10.5625 -93.722656 13.382812 -108.15625 19.03125 -119.875 C 24.6875 -131.59375 32.285156 -140.484375 41.828125 -146.546875 C 51.378906 -152.617188 61.988281 -155.65625 73.65625 -155.65625 C 81.90625 -155.65625 88.898438 -154.3125 94.640625 -151.625 C 100.390625 -148.945312 105.140625 -145.546875 108.890625 -141.421875 C 112.640625 -137.296875 115.582031 -133.007812 117.71875 -128.5625 L 118.828125 -128.5625 L 118.828125 -207.09375 L 160.25 -207.09375 L 160.25 0 L 119.390625 0 L 119.390625 -24.328125 L 117.859375 -24.328125 C 115.722656 -19.878906 112.734375 -15.59375 108.890625 -11.46875 C 105.046875 -7.34375 100.273438 -3.957031 94.578125 -1.3125 C 88.878906 1.320312 82 2.640625 73.9375 2.640625 Z M 86.171875 -30.71875 C 93.304688 -30.71875 99.375 -32.640625 104.375 -36.484375 C 109.375 -40.328125 113.21875 -45.675781 115.90625 -52.53125 C 118.59375 -59.394531 119.9375 -67.457031 119.9375 -76.71875 C 119.9375 -85.988281 118.613281 -94.023438 115.96875 -100.828125 C 113.332031 -107.640625 109.488281 -112.921875 104.4375 -116.671875 C 99.394531 -120.429688 93.304688 -122.3125 86.171875 -122.3125 C 79.128906 -122.3125 73.128906 -120.410156 68.171875 -116.609375 C 63.210938 -112.804688 59.457031 -107.476562 56.90625 -100.625 C 54.363281 -93.769531 53.09375 -85.800781 53.09375 -76.71875 C 53.09375 -67.539062 54.363281 -59.5 56.90625 -52.59375 C 59.457031 -45.695312 63.210938 -40.328125 68.171875 -36.484375 C 73.128906 -32.640625 79.128906 -30.71875 86.171875 -30.71875 Z M 86.171875 -30.71875"/></g></g><g transform="translate(601.216165, 275.540537)"><g><path d="M 86.3125 3.0625 C 70.832031 3.0625 57.414062 -0.25 46.0625 -6.875 C 34.71875 -13.5 25.960938 -22.765625 19.796875 -34.671875 C 13.640625 -46.578125 10.5625 -60.40625 10.5625 -76.15625 C 10.5625 -92.09375 13.640625 -106.015625 19.796875 -117.921875 C 25.960938 -129.828125 34.71875 -139.09375 46.0625 -145.71875 C 57.414062 -152.34375 70.832031 -155.65625 86.3125 -155.65625 C 101.6875 -155.65625 115.050781 -152.34375 126.40625 -145.71875 C 137.757812 -139.09375 146.515625 -129.828125 152.671875 -117.921875 C 158.835938 -106.015625 161.921875 -92.09375 161.921875 -76.15625 C 161.921875 -60.40625 158.835938 -46.578125 152.671875 -34.671875 C 146.515625 -22.765625 137.757812 -13.5 126.40625 -6.875 C 115.050781 -0.25 101.6875 3.0625 86.3125 3.0625 Z M 86.3125 -29.75 C 93.539062 -29.75 99.628906 -31.738281 104.578125 -35.71875 C 109.535156 -39.707031 113.3125 -45.195312 115.90625 -52.1875 C 118.507812 -59.1875 119.8125 -67.222656 119.8125 -76.296875 C 119.8125 -85.472656 118.507812 -93.535156 115.90625 -100.484375 C 113.3125 -107.429688 109.535156 -112.894531 104.578125 -116.875 C 99.628906 -120.863281 93.539062 -122.859375 86.3125 -122.859375 C 79.082031 -122.859375 72.960938 -120.863281 67.953125 -116.875 C 62.953125 -112.894531 59.175781 -107.429688 56.625 -100.484375 C 54.082031 -93.535156 52.8125 -85.472656 52.8125 -76.296875 C 52.8125 -67.222656 54.082031 -59.1875 56.625 -52.1875 C 59.175781 -45.195312 62.929688 -39.707031 67.890625 -35.71875 C 72.847656 -31.738281 78.988281 -29.75 86.3125 -29.75 Z M 86.3125 -29.75"/></g></g><g transform="translate(773.69472, 275.540537)"><g><path d="M 86.03125 3.0625 C 70.644531 3.0625 57.300781 -0.25 46 -6.875 C 34.695312 -13.5 25.960938 -22.765625 19.796875 -34.671875 C 13.640625 -46.578125 10.5625 -60.40625 10.5625 -76.15625 C 10.5625 -92.007812 13.640625 -105.910156 19.796875 -117.859375 C 25.960938 -129.804688 34.695312 -139.09375 46 -145.71875 C 57.300781 -152.34375 70.644531 -155.65625 86.03125 -155.65625 C 95.382812 -155.65625 103.976562 -154.425781 111.8125 -151.96875 C 119.644531 -149.519531 126.570312 -145.976562 132.59375 -141.34375 C 138.613281 -136.707031 143.546875 -131.125 147.390625 -124.59375 C 151.234375 -118.0625 153.804688 -110.722656 155.109375 -102.578125 L 116.1875 -97.015625 C 115.351562 -100.992188 114.101562 -104.554688 112.4375 -107.703125 C 110.769531 -110.859375 108.6875 -113.570312 106.1875 -115.84375 C 103.6875 -118.113281 100.789062 -119.847656 97.5 -121.046875 C 94.207031 -122.253906 90.523438 -122.859375 86.453125 -122.859375 C 79.128906 -122.859375 72.988281 -120.910156 68.03125 -117.015625 C 63.070312 -113.128906 59.296875 -107.6875 56.703125 -100.6875 C 54.109375 -93.695312 52.8125 -85.566406 52.8125 -76.296875 C 52.8125 -67.128906 54.109375 -59.046875 56.703125 -52.046875 C 59.296875 -45.054688 63.070312 -39.59375 68.03125 -35.65625 C 72.988281 -31.71875 79.128906 -29.75 86.453125 -29.75 C 90.523438 -29.75 94.207031 -30.375 97.5 -31.625 C 100.789062 -32.875 103.707031 -34.65625 106.25 -36.96875 C 108.800781 -39.28125 110.929688 -42.082031 112.640625 -45.375 C 114.359375 -48.664062 115.585938 -52.394531 116.328125 -56.5625 L 155.25 -50.875 C 154.039062 -42.625 151.515625 -35.207031 147.671875 -28.625 C 143.828125 -22.050781 138.890625 -16.378906 132.859375 -11.609375 C 126.835938 -6.835938 119.863281 -3.195312 111.9375 -0.6875 C 104.019531 1.8125 95.382812 3.0625 86.03125 3.0625 Z M 86.03125 3.0625"/></g></g><g transform="translate(939.085116, 275.540537)"><g><path d="M 78.53125 3.203125 C 66.019531 3.203125 54.921875 1.375 45.234375 -2.28125 C 35.554688 -5.945312 27.679688 -11.253906 21.609375 -18.203125 C 15.546875 -25.148438 11.722656 -33.488281 10.140625 -43.21875 L 49.203125 -48.5 C 50.960938 -41.457031 54.34375 -36.128906 59.34375 -32.515625 C 64.351562 -28.910156 71.023438 -27.109375 79.359375 -27.109375 C 87.234375 -27.109375 93.441406 -28.613281 97.984375 -31.625 C 102.523438 -34.632812 104.796875 -38.453125 104.796875 -43.078125 C 104.796875 -47.066406 103.148438 -50.332031 99.859375 -52.875 C 96.566406 -55.425781 91.632812 -57.398438 85.0625 -58.796875 L 58.515625 -64.078125 C 43.691406 -67.128906 32.570312 -72.316406 25.15625 -79.640625 C 17.738281 -86.960938 14.03125 -96.410156 14.03125 -107.984375 C 14.03125 -117.710938 16.691406 -126.144531 22.015625 -133.28125 C 27.347656 -140.414062 34.851562 -145.925781 44.53125 -149.8125 C 54.21875 -153.707031 65.550781 -155.65625 78.53125 -155.65625 C 90.945312 -155.65625 101.691406 -153.894531 110.765625 -150.375 C 119.847656 -146.851562 127.144531 -141.847656 132.65625 -135.359375 C 138.175781 -128.878906 141.675781 -121.238281 143.15625 -112.4375 L 106.046875 -107.296875 C 104.742188 -112.765625 101.847656 -117.234375 97.359375 -120.703125 C 92.867188 -124.179688 86.867188 -125.921875 79.359375 -125.921875 C 72.410156 -125.921875 66.6875 -124.460938 62.1875 -121.546875 C 57.695312 -118.628906 55.453125 -114.851562 55.453125 -110.21875 C 55.453125 -106.320312 56.976562 -103.050781 60.03125 -100.40625 C 63.09375 -97.769531 68.097656 -95.757812 75.046875 -94.375 L 102.84375 -88.8125 C 117.851562 -85.84375 128.992188 -80.929688 136.265625 -74.078125 C 143.546875 -67.222656 147.1875 -58.28125 147.1875 -47.25 C 147.1875 -37.15625 144.265625 -28.332031 138.421875 -20.78125 C 132.585938 -13.226562 124.503906 -7.34375 114.171875 -3.125 C 103.835938 1.09375 91.957031 3.203125 78.53125 3.203125 Z M 78.53125 3.203125"/></g></g></g></g></g></svg>